<svg width="512" height="512" viewBox="0 0 512 512" fill="none" xmlns="http://www.w3.org/2000/svg">
<rect width="512" height="512" rx="50" fill="black"/>
<path d="M260.969 93.1023C257.819 91.6326 254.181 91.6326 251.031 93.1023L74.7811 175.352C70.536 177.333 67.8732 181.647 68.0047 186.33C68.1361 191.012 71.0366 195.17 75.3862 196.91L251.636 267.41C254.437 268.53 257.562 268.53 260.364 267.41L397 212.755V350.5C384.021 350.5 373.5 361.021 373.5 374V421H444V374C444 361.021 433.479 350.5 420.5 350.5V203.355L436.614 196.91C440.963 195.17 443.864 191.012 443.995 186.33C444.127 181.647 441.464 177.333 437.219 175.352L260.969 93.1023Z" fill="url(#paint0_linear_1_22)"/>
<path d="M166.126 257.248C163.069 256.102 159.673 256.279 156.752 257.737C153.831 259.195 151.649 261.803 150.727 264.935L138.977 304.884C137.268 310.698 140.26 316.859 145.886 319.11L251.636 361.41C254.437 362.53 257.562 362.53 260.364 361.41L366.114 319.11C371.74 316.859 374.732 310.698 373.022 304.884L361.272 264.935C360.351 261.803 358.169 259.195 355.248 257.737C352.327 256.279 348.931 256.102 345.874 257.248L256 290.951L166.126 257.248Z" fill="url(#paint1_linear_1_22)"/>
<defs>
<linearGradient id="paint0_linear_1_22" x1="256" y1="92" x2="256" y2="421" gradientUnits="userSpaceOnUse">
<stop stop-color="#0077FF"/>
<stop offset="1" stop-color="#8276FF"/>
</linearGradient>
<linearGradient id="paint1_linear_1_22" x1="256" y1="92" x2="256" y2="421" gradientUnits="userSpaceOnUse">
<stop stop-color="#0077FF"/>
<stop offset="1" stop-color="#8276FF"/>
</linearGradient>
</defs>
</svg>
