<svg width="645" height="148" viewBox="0 0 645 148" fill="none" xmlns="http://www.w3.org/2000/svg">
<path d="M201.4 36.5H219.85V46.1H221.05C223.35 42.5 226.45 39.6 230.35 37.4C234.35 35.2 238.75 34.1 243.55 34.1C249.15 34.1 253.85 35.4 257.65 38C261.45 40.6 264.15 43.8 265.75 47.6C268.05 43.9 271.3 40.75 275.5 38.15C279.7 35.45 284.8 34.1 290.8 34.1C295.3 34.1 299.2 34.85 302.5 36.35C305.8 37.75 308.5 39.75 310.6 42.35C312.8 44.95 314.45 48.1 315.55 51.8C316.65 55.4 317.2 59.35 317.2 63.65V110H297.55V67.25C297.55 57.25 293.45 52.25 285.25 52.25C282.65 52.25 280.35 52.85 278.35 54.05C276.35 55.15 274.65 56.7 273.25 58.7C271.95 60.6 270.9 62.9 270.1 65.6C269.4 68.3 269.05 71.2 269.05 74.3V110H249.4V67.25C249.4 57.25 245.1 52.25 236.5 52.25C234 52.25 231.8 52.85 229.9 54.05C228 55.15 226.4 56.7 225.1 58.7C223.8 60.6 222.8 62.9 222.1 65.6C221.4 68.3 221.05 71.2 221.05 74.3V110H201.4V36.5Z" fill="white"/>
<path d="M355.018 106.4L324.118 36.5H346.468L365.068 81.05H366.118L383.968 36.5H405.868L359.818 142.4H338.668L355.018 106.4Z" fill="white"/>
<path d="M498.637 100.4H497.437C495.137 104.1 492.037 107.05 488.137 109.25C484.237 111.35 479.787 112.4 474.787 112.4C465.487 112.4 458.537 109.55 453.937 103.85C449.437 98.15 447.187 90.55 447.187 81.05V36.5H466.837V78.65C466.837 83.95 467.987 87.9 470.287 90.5C472.687 93 476.137 94.25 480.637 94.25C483.337 94.25 485.687 93.7 487.687 92.6C489.787 91.4 491.537 89.85 492.937 87.95C494.437 85.95 495.537 83.65 496.237 81.05C497.037 78.35 497.437 75.5 497.437 72.5V36.5H517.087V110H498.637V100.4Z" fill="white"/>
<path d="M552.37 46.1H553.57C555.87 42.4 558.97 39.5 562.87 37.4C566.77 35.2 571.22 34.1 576.22 34.1C580.82 34.1 584.87 34.85 588.37 36.35C591.87 37.85 594.72 40 596.92 42.8C599.22 45.5 600.92 48.8 602.02 52.7C603.22 56.5 603.82 60.75 603.82 65.45V110H584.17V67.85C584.17 62.55 582.97 58.65 580.57 56.15C578.27 53.55 574.87 52.25 570.37 52.25C567.67 52.25 565.27 52.85 563.17 54.05C561.17 55.15 559.42 56.7 557.92 58.7C556.52 60.6 555.42 62.9 554.62 65.6C553.92 68.2 553.57 71 553.57 74V110H533.92V36.5H552.37V46.1Z" fill="white"/>
<path d="M631.002 25.85C629.302 25.85 627.652 25.55 626.052 24.95C624.552 24.25 623.202 23.35 622.002 22.25C620.902 21.05 620.002 19.7 619.302 18.2C618.702 16.7 618.402 15.05 618.402 13.25C618.402 11.45 618.702 9.80002 619.302 8.30002C620.002 6.80003 620.902 5.50002 622.002 4.40002C623.202 3.20002 624.552 2.30002 626.052 1.70002C627.652 1.00002 629.302 0.650024 631.002 0.650024C634.502 0.650024 637.502 1.90002 640.002 4.40002C642.502 6.80003 643.752 9.75003 643.752 13.25C643.752 16.75 642.502 19.75 640.002 22.25C637.502 24.65 634.502 25.85 631.002 25.85ZM621.252 110V36.5H640.902V110H621.252Z" fill="white"/>
<path d="M631 27C638.456 27 644.5 20.9558 644.5 13.5C644.5 6.04416 638.456 0 631 0C623.544 0 617.5 6.04416 617.5 13.5C617.5 20.9558 623.544 27 631 27Z" fill="url(#paint0_linear_6_14)"/>
<path d="M78.0087 15.4456C76.7355 14.8515 75.2645 14.8515 73.9913 15.4456L2.74131 48.6956C1.02518 49.4965 -0.0512529 51.2402 0.00188094 53.1333C0.0550145 55.0263 1.22756 56.7069 2.98591 57.4103L74.2359 85.9103C75.3684 86.3632 76.6317 86.3632 77.7641 85.9103L133 63.8159V119.5C127.753 119.5 123.5 123.753 123.5 129V148H152V129C152 123.753 147.747 119.5 142.5 119.5V60.0159L149.014 57.4103C150.772 56.7069 151.945 55.0263 151.998 53.1333C152.051 51.2402 150.975 49.4965 149.259 48.6956L78.0087 15.4456Z" fill="url(#paint1_linear_6_14)"/>
<path d="M39.6678 81.8024C38.4321 81.339 37.0593 81.4106 35.8786 82.0001C34.6978 82.5895 33.8154 83.6436 33.443 84.9097L28.693 101.06C28.0018 103.41 29.2113 105.9 31.4859 106.81L74.2359 123.91C75.3684 124.363 76.6317 124.363 77.7641 123.91L120.514 106.81C122.789 105.9 123.998 103.41 123.307 101.06L118.557 84.9097C118.185 83.6436 117.302 82.5895 116.121 82.0001C114.941 81.4106 113.568 81.339 112.332 81.8024L76 95.427L39.6678 81.8024Z" fill="url(#paint2_linear_6_14)"/>
<defs>
<linearGradient id="paint0_linear_6_14" x1="631" y1="0" x2="631" y2="27" gradientUnits="userSpaceOnUse">
<stop stop-color="#0077FF"/>
<stop offset="1" stop-color="#8276FF"/>
</linearGradient>
<linearGradient id="paint1_linear_6_14" x1="76" y1="15" x2="76" y2="148" gradientUnits="userSpaceOnUse">
<stop stop-color="#0077FF"/>
<stop offset="1" stop-color="#8276FF"/>
</linearGradient>
<linearGradient id="paint2_linear_6_14" x1="76" y1="15" x2="76" y2="148" gradientUnits="userSpaceOnUse">
<stop stop-color="#0077FF"/>
<stop offset="1" stop-color="#8276FF"/>
</linearGradient>
</defs>
</svg>
