<svg width="444" height="143" viewBox="0 0 444 143" fill="none" xmlns="http://www.w3.org/2000/svg">
<path d="M0 36.5H18.45V46.1H19.65C21.95 42.5 25.05 39.6 28.95 37.4C32.95 35.2 37.35 34.1 42.15 34.1C47.75 34.1 52.45 35.4 56.25 38C60.05 40.6 62.75 43.8 64.35 47.6C66.65 43.9 69.9 40.75 74.1 38.15C78.3 35.45 83.4 34.1 89.4 34.1C93.9 34.1 97.8 34.85 101.1 36.35C104.4 37.75 107.1 39.75 109.2 42.35C111.4 44.95 113.05 48.1 114.15 51.8C115.25 55.4 115.8 59.35 115.8 63.65V110H96.15V67.25C96.15 57.25 92.05 52.25 83.85 52.25C81.25 52.25 78.95 52.85 76.95 54.05C74.95 55.15 73.25 56.7 71.85 58.7C70.55 60.6 69.5 62.9 68.7 65.6C68 68.3 67.65 71.2 67.65 74.3V110H48V67.25C48 57.25 43.7 52.25 35.1 52.25C32.6 52.25 30.4 52.85 28.5 54.05C26.6 55.15 25 56.7 23.7 58.7C22.4 60.6 21.4 62.9 20.7 65.6C20 68.3 19.65 71.2 19.65 74.3V110H0V36.5Z" fill="white"/>
<path d="M153.618 106.4L122.718 36.5H145.068L163.668 81.05H164.718L182.568 36.5H204.468L158.418 142.4H137.268L153.618 106.4Z" fill="white"/>
<path d="M297.237 100.4H296.037C293.737 104.1 290.637 107.05 286.737 109.25C282.837 111.35 278.387 112.4 273.387 112.4C264.087 112.4 257.137 109.55 252.537 103.85C248.037 98.15 245.787 90.55 245.787 81.05V36.5H265.437V78.65C265.437 83.95 266.587 87.9 268.887 90.5C271.287 93 274.737 94.25 279.237 94.25C281.937 94.25 284.287 93.7 286.287 92.6C288.387 91.4 290.137 89.85 291.537 87.95C293.037 85.95 294.137 83.65 294.837 81.05C295.637 78.35 296.037 75.5 296.037 72.5V36.5H315.687V110H297.237V100.4Z" fill="white"/>
<path d="M350.97 46.1H352.17C354.47 42.4 357.57 39.5 361.47 37.4C365.37 35.2 369.82 34.1 374.82 34.1C379.42 34.1 383.47 34.85 386.97 36.35C390.47 37.85 393.32 40 395.52 42.8C397.82 45.5 399.52 48.8 400.62 52.7C401.82 56.5 402.42 60.75 402.42 65.45V110H382.77V67.85C382.77 62.55 381.57 58.65 379.17 56.15C376.87 53.55 373.47 52.25 368.97 52.25C366.27 52.25 363.87 52.85 361.77 54.05C359.77 55.15 358.02 56.7 356.52 58.7C355.12 60.6 354.02 62.9 353.22 65.6C352.52 68.2 352.17 71 352.17 74V110H332.52V36.5H350.97V46.1Z" fill="white"/>
<path d="M429.602 25.85C427.902 25.85 426.252 25.55 424.652 24.95C423.152 24.25 421.802 23.35 420.602 22.25C419.502 21.05 418.602 19.7 417.902 18.2C417.302 16.7 417.002 15.05 417.002 13.25C417.002 11.45 417.302 9.80002 417.902 8.30002C418.602 6.80003 419.502 5.50002 420.602 4.40002C421.802 3.20002 423.152 2.30002 424.652 1.70002C426.252 1.00002 427.902 0.650024 429.602 0.650024C433.102 0.650024 436.102 1.90002 438.602 4.40002C441.102 6.80003 442.352 9.75003 442.352 13.25C442.352 16.75 441.102 19.75 438.602 22.25C436.102 24.65 433.102 25.85 429.602 25.85ZM419.852 110V36.5H439.502V110H419.852Z" fill="white"/>
<path d="M429.6 27C437.056 27 443.1 20.9558 443.1 13.5C443.1 6.04416 437.056 0 429.6 0C422.144 0 416.1 6.04416 416.1 13.5C416.1 20.9558 422.144 27 429.6 27Z" fill="url(#paint0_linear_1_75)"/>
<defs>
<linearGradient id="paint0_linear_1_75" x1="429.6" y1="0" x2="429.6" y2="27" gradientUnits="userSpaceOnUse">
<stop stop-color="#0077FF"/>
<stop offset="1" stop-color="#8276FF"/>
</linearGradient>
</defs>
</svg>
